<?xml version="1.0" encoding="utf-8"?>
<!-- Generator: Adobe Illustrator 16.0.0, SVG Export Plug-In . SVG Version: 6.00 Build 0)  -->
<!DOCTYPE svg PUBLIC "-//W3C//DTD SVG 1.1//EN" "http://www.w3.org/Graphics/SVG/1.1/DTD/svg11.dtd">
<svg version="1.1" id="Layer_1" xmlns="http://www.w3.org/2000/svg" xmlns:xlink="http://www.w3.org/1999/xlink" x="0px" y="0px"
	 width="113.333px" height="110.667px" viewBox="0 0 113.333 110.667" enable-background="new 0 0 113.333 110.667"
	 xml:space="preserve">
<g>
	<g>
		<path fill-rule="evenodd" clip-rule="evenodd" fill="#231F20" d="M37.666,39.594c-4.847,0.479-7.719,2.677-10.353,4.963
			c-2.522,2.188-5.016,4.671-6.428,8.847c-1.947,5.763-0.792,13.505,4.979,16.238c1.822,0.866,4.281,1.315,6.599,0.962
			c5.83-0.89,9.134-6.354,12.578-10.348c3.948-4.581,7.283-10.25,3.394-16.164C46.242,40.755,41.786,39.186,37.666,39.594"/>
	</g>
	<g>
		<path fill-rule="evenodd" clip-rule="evenodd" fill="#FFCA05" d="M39.561,44.907c2.797-0.513,5.014,1.423,5.483,3.648
			c0.608,2.875-1.531,5.112-3.788,5.522C35.079,55.198,33.11,46.094,39.561,44.907"/>
	</g>
	<g>
		<path fill-rule="evenodd" clip-rule="evenodd" fill="#231F20" d="M57.67,57.636c-3.449,0.438-7.211,3.004-6.362,7.034
			c0.67,3.176,4.392,5.416,8.509,4.939c3.388-0.387,7.202-3.12,6.29-7.104C65.397,59.415,61.727,57.123,57.67,57.636"/>
	</g>
	<g>
		<path fill-rule="evenodd" clip-rule="evenodd" fill="#FFCA05" d="M39.118,43.627c3.233,0,5.852,2.621,5.852,5.853
			c0,3.234-2.618,5.853-5.852,5.853c-3.234,0-5.854-2.619-5.854-5.853C33.265,46.248,35.884,43.627,39.118,43.627"/>
	</g>
	<g>
		<path fill-rule="evenodd" clip-rule="evenodd" fill="#231F20" d="M38.622,75.396c-0.088,1.053-1.49,2.41-2.044,2.836
			c-0.495,0.383-0.857,0.616-1.54,0.816c-1.003,0.299-1.306-0.276-2.07,0.339c-0.137,0.47-0.203,0.634,0.104,1.018
			c0.522,0.552,2.001,0.415,2.732,0.277c1.155-0.219,1.456-0.609,2.284-0.963l0.556,0.809c0.141,0.151,0.319,0.443,0.491,0.667
			c0.481,0.621,1.157,1.613,1.649,2.117c0.289,0.295,0.322,0.361,0.549,0.645l1.869,1.885c0.376,0.241,2.032,1.699,3.558,2.688
			c1.213,0.785,2.675,1.511,4.152,2.073c6.398,2.433,14.33,1.7,20.124-1.936c0.887-0.558,2.016-1.26,2.776-1.898
			c0.323-0.269,0.557-0.473,0.857-0.703c0.77-0.589,3.141-3.103,3.207-3.143c0.146-0.319,0.169-0.281,0.414-0.575
			c0.167-0.201,0.28-0.388,0.475-0.63c0.302-0.37,0.602-0.877,0.885-1.199l0.56-0.799c0.837,0.354,1.116,0.729,2.286,0.966
			c0.729,0.146,2.216,0.26,2.727-0.28c0.242-0.297,0.295-0.517,0.119-0.916c-0.676-1.102-1.37,0.543-3.668-1.212
			c-0.717-0.552-0.712-0.622-1.254-1.308c-0.364-0.457-0.679-0.994-0.846-1.679c-0.286-0.989,0.307-1.825-0.303-2.252
			c-1.508-1.05-1.925,2.302-0.779,4.581c0.178,0.356,0.403,0.616,0.531,0.939c-0.502,1.108-2.875,3.861-3.885,4.704
			c-0.148,0.156-0.242,0.314-0.422,0.451c-0.216,0.166-0.292,0.22-0.543,0.42l0.158-1.172c-0.079-1.948-0.223-3.461-1.986-4.389
			c-1.752-0.921-3.334-0.361-4.631,0.91l-0.98,1.129c-0.166,0.228-0.813,1.172-0.892,1.239c-0.146,0.235-0.825,1.373-0.957,1.473
			l-0.86,1.388c-0.131,0.163-0.049,0.063-0.143,0.157l-0.966,1.487c-0.734,1.032-1.329,1.875-2.486,2.551
			c-0.563,0.33-1.152,0.561-1.864,0.681c-2.269,0.384-6.511-0.822-8.395-1.657c-1.263-0.56-2.217-1.088-3.296-1.738
			c-1.075-0.65-2.003-1.446-2.898-2.146c-0.248-0.192-0.353-0.364-0.617-0.574c-0.866-0.688-2.333-2.389-3.034-3.393
			c-0.313-0.448-0.83-1.035-1.051-1.521c0.39-0.988,1.434-1.941,1.14-4.397c-0.164-1.345-0.866-1.566-1.444-1.078
			C38.342,73.614,39.202,74.561,38.622,75.396 M66.713,83.347c0.069-0.062,0.082-0.084,0.138-0.135
			c0.011-0.011,0.037-0.037,0.052-0.049l0.116-0.096c0.041-0.204-0.064,0,0.12-0.289c0.11-0.181,0.116-0.146,0.212-0.348l0.537-0.65
			c0.228-0.259,0.285-0.413,0.551-0.644c2.123-1.869,4.057-0.555,4.313,0.907c0.251,1.434-0.396,2.758-1.055,3.595
			c-0.602,0.761-1.604,1.411-2.86,1.919c0.207-0.472,0.574-0.928,0.831-1.389c0.257-0.46,0.513-0.9,0.693-1.434
			c-0.026-0.292,0.088-0.054-0.088-0.213c-0.627-0.006-0.965-0.094-1.14-0.643l0.298,0.254c0.05,0.038,0.215,0.135,0.301,0.161
			c0.3,0.093,0.541,0.049,0.824,0.002c0.336-0.927,0.473-0.897,0.37-1.836c-0.21-0.167-0.448-0.45-0.906-0.313
			c-0.326,0.096-0.432,0.351-0.539,0.685c-0.135,0.424-0.45,1.315-0.694,1.672c-0.461,1.239-1.456,2.658-2.207,3.432
			c-1.074,1.103-2.307,1.181-4.098,1.563l3.698-5.149l0.113-0.474l0.181-0.122C66.582,83.586,66.62,83.56,66.713,83.347z
			 M69.815,83.456c-0.348-0.636,0.377-0.423,0.116-0.904c-0.005-0.015-0.075-0.09-0.087-0.141l0.483,0.079
			c-0.102,0.44-0.294,0.44-0.37,0.639c-0.064,0.166-0.009,0.114,0.012,0.184c0.361,0.026,0.464-0.407,0.912-0.65
			c-0.107,0.433,0.033,0.164-0.241,0.443c-0.062,0.064-0.158,0.141-0.233,0.213C70.177,83.537,70.147,83.616,69.815,83.456z"/>
	</g>
	<g>
		<path fill-rule="evenodd" clip-rule="evenodd" fill="#FF000D" d="M68.786,84.505c0.244-0.356,0.56-1.248,0.694-1.672
			c0.107-0.334,0.213-0.589,0.539-0.685c0.458-0.138,0.696,0.146,0.906,0.313c0.103,0.938-0.034,0.909-0.37,1.836l-0.195,0.438
			c-0.181,0.533-0.437,0.974-0.693,1.434c-0.257,0.461-0.624,0.917-0.831,1.389c1.257-0.508,2.259-1.158,2.86-1.919
			c0.658-0.837,1.306-2.161,1.055-3.595c-0.256-1.462-2.189-2.776-4.313-0.907c-0.266,0.23-0.323,0.385-0.551,0.644l-0.537,0.65
			c-0.096,0.202-0.102,0.167-0.212,0.348c-0.185,0.289-0.079,0.085-0.12,0.289l-0.116,0.096c-0.015,0.012-0.041,0.038-0.052,0.049
			c-0.056,0.051-0.068,0.073-0.138,0.135c-0.093,0.213-0.131,0.239-0.239,0.408l-0.181,0.122l-0.113,0.474L62.481,89.5
			c1.791-0.383,3.023-0.461,4.098-1.563C67.33,87.164,68.325,85.745,68.786,84.505"/>
	</g>
	<g>
		<path fill-rule="evenodd" clip-rule="evenodd" fill="#231F20" d="M69.815,83.456c0.332,0.16,0.361,0.081,0.592-0.138
			c0.075-0.072,0.172-0.148,0.233-0.213c0.274-0.279,0.134-0.011,0.241-0.443c-0.448,0.243-0.551,0.677-0.912,0.65
			c-0.021-0.069-0.076-0.018-0.012-0.184c0.076-0.198,0.269-0.198,0.37-0.639l-0.483-0.079c0.012,0.051,0.082,0.126,0.087,0.141
			C70.192,83.033,69.468,82.82,69.815,83.456"/>
	</g>
	<g>
		<path fill-rule="evenodd" clip-rule="evenodd" fill="#231F20" d="M75.14,83.263c-0.312,0.041-0.187,0.008-0.391,0.2l-0.347,0.271
			l-0.069-0.772l-0.158,1.172c0.251-0.2,0.327-0.254,0.543-0.42C74.897,83.578,74.991,83.419,75.14,83.263"/>
	</g>
	<g>
		<path fill-rule="evenodd" clip-rule="evenodd" fill="#231F20" d="M70.36,84.736l0.195-0.438c-0.283,0.047-0.524,0.091-0.824-0.002
			c-0.086-0.026-0.251-0.123-0.301-0.161l-0.298-0.254c0.175,0.549,0.513,0.637,1.14,0.643
			C70.448,84.682,70.334,84.444,70.36,84.736"/>
	</g>
	<g>
		<path fill-rule="evenodd" clip-rule="evenodd" fill="#231F20" d="M79.135,39.594c4.848,0.479,7.719,2.677,10.353,4.963
			c2.522,2.188,5.018,4.671,6.431,8.847c1.944,5.763,0.786,13.505-4.981,16.238c-1.822,0.866-4.281,1.315-6.599,0.962
			c-5.83-0.89-9.134-6.354-12.578-10.348c-3.948-4.581-7.284-10.25-3.394-16.164C70.559,40.755,75.015,39.186,79.135,39.594"/>
	</g>
	<g>
		<path fill-rule="evenodd" clip-rule="evenodd" fill="#FFCA05" d="M77.683,43.627c-3.231,0-5.853,2.621-5.853,5.853
			c0,3.234,2.621,5.853,5.853,5.853c3.234,0,5.856-2.619,5.856-5.853C83.539,46.248,80.917,43.627,77.683,43.627"/>
	</g>
	<g>
		<path fill-rule="evenodd" clip-rule="evenodd" fill="#231F20" d="M58.398,98.029C25.485,97.155,4.539,55.813,24.841,31.406
			C37.01,31.964,52.356,18.937,48.46,8.926c-2.865-7.362-16.851-2.187-20.558,0.618c-3.934,2.568-6.464,5.538-8.042,10.099
			c-0.616,1.773-0.721,2.646-0.968,4.631c-0.379,3.065-2.068,4.523-3.392,6.822C6.659,46.453,8.511,66.916,16.16,80.49
			c9.506,16.875,25.88,24.883,42.238,25.096c16.362-0.213,32.736-8.221,42.242-25.096c7.648-13.574,9.501-34.037,0.66-49.395
			c-1.324-2.299-3.011-3.757-3.393-6.822c-0.247-1.984-0.353-2.858-0.968-4.631c-1.578-4.561-4.108-7.53-8.042-10.099
			c-3.707-2.805-17.691-7.979-20.556-0.618c-3.901,10.011,11.448,23.038,23.617,22.48C112.262,55.813,91.315,97.155,58.398,98.029"
			/>
	</g>
</g>
</svg>
