<?xml version="1.0" encoding="utf-8"?>
<!-- Generator: Adobe Illustrator 16.0.0, SVG Export Plug-In . SVG Version: 6.00 Build 0)  -->
<!DOCTYPE svg PUBLIC "-//W3C//DTD SVG 1.1//EN" "http://www.w3.org/Graphics/SVG/1.1/DTD/svg11.dtd">
<svg version="1.1" id="Layer_1" xmlns="http://www.w3.org/2000/svg" xmlns:xlink="http://www.w3.org/1999/xlink" x="0px" y="0px"
	 width="526.999px" height="126.333px" viewBox="0 0 526.999 126.333" enable-background="new 0 0 526.999 126.333"
	 xml:space="preserve">
<g>
	<path fill="#231F20" d="M76.438,7.534c-1.757-1.658-3.764-2.5-5.965-2.5c-2.792,0-5.208,1.428-7.186,4.255L42.879,39.153
		L21.032,8.999c-1.975-2.63-4.341-3.964-7.033-3.964c-2.091,0-4.145,0.804-6.105,2.389c-2.017,1.633-3.04,3.777-3.04,6.37
		c0,0.955,0.189,2.003,0.56,3.118c0.372,1.121,1.026,2.292,1.937,3.475l26.51,35.223v32.757c0,2.472,0.848,4.572,2.518,6.239
		c1.67,1.673,3.727,2.52,6.113,2.52c2.215,0,4.185-0.847,5.855-2.519c1.671-1.671,2.519-3.77,2.519-6.24V57.37l26.669-38.183
		c0.568-0.853,0.978-1.746,1.216-2.655c0.233-0.89,0.352-1.769,0.352-2.61C79.104,11.358,78.207,9.208,76.438,7.534z"/>
	<path fill="#231F20" d="M137.882,29.125c-1.633-1.677-3.713-2.527-6.186-2.527c-2.475,0-4.556,0.85-6.186,2.527
		c-1.623,1.67-2.445,3.766-2.445,6.232v32.601c0,4.956-1.084,8.652-3.222,10.987c-2.114,2.313-5.424,3.485-9.838,3.485
		c-4.327,0-7.594-1.173-9.71-3.485c-2.138-2.335-3.221-6.031-3.221-10.987V35.357c0-2.463-0.823-4.561-2.445-6.232
		c-1.633-1.677-3.713-2.527-6.185-2.527c-2.475,0-4.556,0.85-6.186,2.527c-1.623,1.67-2.445,3.766-2.445,6.232v32.601
		c0,9.274,2.611,16.744,7.762,22.201c5.163,5.474,12.71,8.249,22.431,8.249c9.719,0,17.286-2.774,22.494-8.246
		c5.195-5.459,7.829-12.93,7.829-22.204V35.357C140.328,32.894,139.505,30.798,137.882,29.125z"/>
	<path fill="#231F20" d="M251.702,41.567c-1.246-4.575-3.572-8.297-6.916-11.061c-3.366-2.782-8.294-4.193-14.646-4.193
		c-3.898,0-7.476,0.834-10.634,2.48c-3.117,1.625-5.812,3.63-8.012,5.962c-1.46,1.547-2.68,3.046-3.644,4.475
		c-1.212-2.956-2.899-5.54-5.029-7.698c-3.42-3.463-8.739-5.219-15.807-5.219c-2.921,0-5.665,0.474-8.156,1.408
		c-2.463,0.923-4.741,2.151-6.772,3.65c-1.859,1.375-3.479,2.862-4.821,4.426c-0.116-2.222-0.933-4.129-2.431-5.672
		c-1.633-1.677-3.713-2.527-6.186-2.527c-2.474,0-4.555,0.85-6.186,2.527c-1.623,1.67-2.445,3.766-2.445,6.232v53.009
		c0,2.468,0.823,4.564,2.444,6.23c1.629,1.677,3.71,2.528,6.187,2.528c2.474,0,4.556-0.85,6.186-2.528
		c1.622-1.669,2.444-3.765,2.444-6.23V56.507c0-2.661,0.55-5.09,1.632-7.214c1.069-2.097,2.699-3.805,4.843-5.077
		c2.157-1.277,4.805-1.924,7.869-1.924c3.112,0,5.513,0.626,7.138,1.863c1.651,1.26,2.762,2.889,3.396,4.983
		c0.655,2.171,0.987,4.649,0.987,7.369v32.858c0,2.468,0.823,4.563,2.444,6.23c1.629,1.677,3.71,2.528,6.187,2.528
		c2.475,0,4.556-0.85,6.186-2.528c1.623-1.669,2.445-3.766,2.445-6.23V56.507c0-2.661,0.549-5.09,1.631-7.214
		c1.068-2.096,2.698-3.804,4.843-5.077c2.156-1.277,4.804-1.924,7.869-1.924c3.112,0,5.514,0.626,7.138,1.863
		c1.65,1.259,2.761,2.889,3.395,4.983c0.655,2.173,0.987,4.652,0.987,7.369v32.858c0,2.468,0.823,4.564,2.445,6.23
		c1.629,1.677,3.71,2.528,6.187,2.528c2.474,0,4.556-0.85,6.186-2.528c1.623-1.669,2.445-3.766,2.445-6.23V56.507
		C253.532,51.064,252.916,46.039,251.702,41.567z"/>
	<path fill="#231F20" d="M364.907,41.567c-1.246-4.577-3.572-8.298-6.914-11.061c-3.367-2.782-8.295-4.193-14.646-4.193
		c-3.899,0-7.478,0.834-10.636,2.48c-3.118,1.626-5.813,3.632-8.009,5.962c-1.461,1.546-2.682,3.044-3.646,4.475
		c-1.212-2.958-2.899-5.54-5.03-7.698c-3.42-3.463-8.737-5.219-15.807-5.219c-2.921,0-5.665,0.474-8.155,1.408
		c-2.462,0.923-4.741,2.151-6.772,3.65c-1.859,1.375-3.479,2.862-4.821,4.426c-0.116-2.222-0.932-4.129-2.432-5.672
		c-1.632-1.677-3.711-2.527-6.185-2.527s-4.555,0.85-6.186,2.527c-1.622,1.67-2.445,3.766-2.445,6.232v53.009
		c0,2.468,0.823,4.564,2.445,6.23c1.628,1.677,3.709,2.528,6.186,2.528c2.475,0,4.556-0.85,6.187-2.528
		c1.622-1.669,2.444-3.765,2.444-6.23V56.507c0-2.661,0.55-5.09,1.632-7.214c1.068-2.097,2.697-3.805,4.843-5.077
		c2.157-1.277,4.805-1.924,7.868-1.924c3.113,0,5.515,0.626,7.139,1.863c1.651,1.26,2.762,2.889,3.396,4.983
		c0.653,2.171,0.986,4.649,0.986,7.369v32.858c0,2.468,0.823,4.563,2.444,6.23c1.63,1.677,3.711,2.528,6.188,2.528
		s4.558-0.85,6.188-2.528c1.62-1.669,2.442-3.765,2.442-6.23V56.507c0-2.66,0.55-5.088,1.631-7.214
		c1.071-2.097,2.702-3.805,4.846-5.077c2.156-1.277,4.805-1.924,7.868-1.924c3.111,0,5.513,0.626,7.136,1.863
		c1.651,1.259,2.763,2.888,3.396,4.983c0.655,2.174,0.986,4.654,0.986,7.369v32.858c0,2.468,0.823,4.563,2.446,6.23
		c1.628,1.677,3.709,2.528,6.187,2.528c2.477,0,4.557-0.852,6.185-2.528c1.623-1.667,2.445-3.763,2.445-6.23V56.507
		C366.736,51.06,366.122,46.035,364.907,41.567z"/>
	<path fill="#231F20" d="M433.858,29.125c-1.634-1.677-3.715-2.527-6.187-2.527c-2.475,0-4.558,0.85-6.187,2.527
		c-1.621,1.668-2.443,3.764-2.443,6.232v32.856c0,3.093-0.53,5.739-1.577,7.871c-1.019,2.081-2.489,3.675-4.367,4.731
		c-1.905,1.07-4.3,1.614-7.118,1.614c-4.1,0-7.32-1.062-9.568-3.154c-2.232-2.072-3.363-5.794-3.363-11.063V35.357
		c0-2.463-0.821-4.561-2.443-6.232c-1.634-1.677-3.715-2.527-6.187-2.527c-2.476,0-4.558,0.85-6.187,2.527
		c-1.624,1.67-2.446,3.767-2.446,6.232v37.479c0,4.916,0.983,9.354,2.926,13.19c1.95,3.859,4.722,6.922,8.234,9.098
		c3.513,2.18,7.671,3.284,12.36,3.284c3.924,0,7.473-0.489,10.548-1.453c3.102-0.976,5.822-2.438,8.084-4.349
		c0.417-0.352,0.824-0.722,1.218-1.111c-0.101,3.686-0.729,6.65-1.869,8.823c-1.236,2.347-3.014,3.972-5.434,4.963
		c-2.485,1.019-5.67,1.535-9.466,1.535c-2.775,0-5.249-0.431-7.353-1.281c-2.242-0.903-4.079-1.582-5.421-1.999
		c-2.117-0.772-4.201-0.646-6.142,0.37c-1.93,1.013-3.334,2.902-4.176,5.61c-0.682,2.133-0.459,4.18,0.662,6.082
		c1.081,1.832,3.019,3.364,5.758,4.553c2.034,0.884,4.663,1.554,7.814,1.993c3.116,0.432,6.095,0.65,8.856,0.65
		c6.254,0,11.987-1.061,17.04-3.152c5.12-2.118,9.26-5.63,12.304-10.436c3.033-4.792,4.571-11.285,4.571-19.301V35.357
		C436.302,32.894,435.48,30.796,433.858,29.125z"/>
	<path fill="#231F20" d="M519.246,49.146c-1.604-1.649-3.647-2.484-6.077-2.484h-20.678c-2.421,0-4.479,0.808-6.122,2.401
		c-1.649,1.604-2.483,3.647-2.483,6.078c0,2.431,0.834,4.476,2.483,6.076c1.64,1.594,3.699,2.403,6.122,2.403h10.938v14.774
		c-1.56,0.519-3.42,0.96-5.54,1.313c-2.959,0.494-5.707,0.744-8.171,0.744c-5.274,0-10.141-1.334-14.468-3.964
		c-4.338-2.635-7.838-6.237-10.4-10.705c-2.553-4.46-3.848-9.397-3.848-14.677c0-5.359,1.293-10.317,3.846-14.735
		c2.562-4.426,6.062-8.008,10.402-10.646c4.331-2.631,9.199-3.965,14.468-3.965c2.524,0,4.963,0.249,7.247,0.737
		c2.277,0.487,4.465,1.189,6.462,2.066c0.734,0.368,1.503,0.648,2.279,0.828c0.771,0.186,1.541,0.278,2.291,0.278
		c2.375,0,4.35-0.915,5.87-2.721c1.479-1.76,2.23-3.782,2.23-6.01c0-1.329-0.356-2.646-1.061-3.911
		c-0.712-1.283-1.79-2.317-3.2-3.071c-3.17-1.712-6.685-3.014-10.444-3.869c-3.759-0.853-7.686-1.285-11.675-1.285
		c-6.478,0-12.622,1.212-18.262,3.604c-5.63,2.388-10.646,5.741-14.911,9.963c-4.265,4.22-7.659,9.173-10.091,14.719
		c-2.437,5.558-3.672,11.619-3.672,18.018c0,6.401,1.235,12.463,3.672,18.019c2.432,5.545,5.826,10.498,10.091,14.719
		c4.271,4.228,9.287,7.579,14.911,9.962c5.637,2.392,11.781,3.604,18.262,3.604c5.106,0,10.052-0.712,14.701-2.118
		c4.636-1.406,8.971-3.325,12.909-5.725c1.094-0.727,2.084-1.693,2.945-2.872c0.91-1.246,1.372-2.825,1.372-4.697v-26.73
		C521.646,52.844,520.839,50.786,519.246,49.146z"/>
</g>
</svg>
